<!DOCTYPE svg PUBLIC "-//W3C//DTD SVG 1.1//EN" "http://www.w3.org/Graphics/SVG/1.1/DTD/svg11.dtd">
<!-- Uploaded to: SVG Repo, www.svgrepo.com, Transformed by: SVG Repo Mixer Tools -->
<svg fill="#ffffff" version="1.1" id="Capa_1" xmlns="http://www.w3.org/2000/svg" xmlns:xlink="http://www.w3.org/1999/xlink" viewBox="0 0 327.117 327.117" xml:space="preserve" width="800px" height="800px">
<g id="SVGRepo_bgCarrier" stroke-width="0"/>
<g id="SVGRepo_tracerCarrier" stroke-linecap="round" stroke-linejoin="round"/>
<g id="SVGRepo_iconCarrier"> <g> <g> <path d="M316.058,28.503h-305V231.35h113.018l-49.669,88.42l13.078,7.347l28.449-50.645h92.893l28.449,50.645l13.078-7.347 l-49.669-88.42h115.373L316.058,28.503L316.058,28.503z M200.401,261.472H124.36l16.921-30.122h42.2L200.401,261.472z M301.058,216.35h-275V43.503h275V216.35z"/> <polygon points="107.344,130.438 143.237,166.331 195.494,114.075 225.91,144.491 279.548,90.854 268.94,80.248 225.91,123.278 195.494,92.861 143.237,145.118 107.344,109.225 47.569,168.998 58.177,179.604 "/> <rect x="124.391" width="78.334" height="15"/> </g> <g> </g> <g> </g> <g> </g> <g> </g> <g> </g> <g> </g> <g> </g> <g> </g> <g> </g> <g> </g> <g> </g> <g> </g> <g> </g> <g> </g> <g> </g> </g> </g>
</svg>