<?xml version="1.0" encoding="UTF-8" standalone="no"?>
<!-- Generator: Adobe Illustrator 16.0.0, SVG Export Plug-In . SVG Version: 6.00 Build 0)  -->

<svg
   version="1.1"
   id="Camada_1"
   x="0px"
   y="0px"
   width="41.501659mm"
   height="56.666058mm"
   viewBox="0 0 156.85667 214.17092"
   enable-background="new 0 0 800 800"
   xml:space="preserve"
   inkscape:version="1.2.2 (732a01da63, 2022-12-09, custom)"
   sodipodi:docname="logo-vertical.svg"
   xmlns:inkscape="http://www.inkscape.org/namespaces/inkscape"
   xmlns:sodipodi="http://sodipodi.sourceforge.net/DTD/sodipodi-0.dtd"
   xmlns="http://www.w3.org/2000/svg"
   xmlns:svg="http://www.w3.org/2000/svg"
   xmlns:rdf="http://www.w3.org/1999/02/22-rdf-syntax-ns#"
   xmlns:cc="http://creativecommons.org/ns#"
   xmlns:dc="http://purl.org/dc/elements/1.1/"><metadata
   id="metadata391"><rdf:RDF><cc:Work
       rdf:about=""><dc:format>image/svg+xml</dc:format><dc:type
         rdf:resource="http://purl.org/dc/dcmitype/StillImage" /></cc:Work></rdf:RDF></metadata><defs
   id="defs389"><clipPath
     clipPathUnits="userSpaceOnUse"
     id="clipPath329"><path
       d="M 0,174 H 131 V 0 H 0 Z"
       id="path327" /></clipPath></defs><sodipodi:namedview
   pagecolor="#ffffff"
   bordercolor="#666666"
   borderopacity="1"
   objecttolerance="10"
   gridtolerance="10"
   guidetolerance="10"
   inkscape:pageopacity="0"
   inkscape:pageshadow="2"
   inkscape:window-width="1920"
   inkscape:window-height="1016"
   id="namedview387"
   showgrid="false"
   fit-margin-top="0"
   fit-margin-left="0"
   fit-margin-right="0"
   fit-margin-bottom="0"
   inkscape:zoom="0.78"
   inkscape:cx="344.87179"
   inkscape:cy="101.92308"
   inkscape:window-x="0"
   inkscape:window-y="0"
   inkscape:window-maximized="1"
   inkscape:current-layer="Camada_1"
   inkscape:showpageshadow="2"
   inkscape:pagecheckerboard="0"
   inkscape:deskcolor="#d1d1d1"
   inkscape:lockguides="false"
   inkscape:document-units="mm"><inkscape:page
     x="0"
     y="0"
     width="156.85667"
     height="214.17091"
     id="page571" /><inkscape:page
     x="211.27196"
     y="-8.9145336"
     width="174.66664"
     height="232"
     id="page573" /><inkscape:page
     x="395.9386"
     y="-8.9145336"
     width="666.66663"
     height="222.66667"
     id="page658" /></sodipodi:namedview><g
   id="g179"
   transform="translate(-406.75054,-311.75788)" /><text
   transform="scale(1.0008496,0.99915112)"
   font-size="12.26"
   id="text257"
   style="font-size:12.2704px;font-family:OpenSans-Bold"
   x="-294.80527"
   y="264.27695" />
<text
   transform="scale(1.0008496,0.99915112)"
   font-size="12.26"
   id="text273"
   style="font-size:12.2704px;font-family:OpenSans-Bold"
   x="-220.28746"
   y="264.27695" />
<text
   transform="scale(1.0008496,0.99915112)"
   font-size="12.26"
   id="text285"
   style="font-size:12.2704px;font-family:OpenSans-Bold"
   x="-157.7498"
   y="264.27695" />
<g
   id="g323"
   transform="matrix(1.3333333,0,0,-1.3333333,-8.9053331,223.08573)"><g
     id="g325"
     clip-path="url(#clipPath329)"><g
       id="g331"
       transform="translate(74.0596,151.7764)"><path
         d="m 0,0 c 0,-0.879 -0.708,-1.588 -1.587,-1.588 h -13.134 c -0.876,0 -1.588,0.709 -1.588,1.588 v 13.136 c 0,0.874 0.712,1.587 1.588,1.587 H -1.587 C -0.708,14.723 0,14.01 0,13.136 Z"
         style="fill:#359830;fill-opacity:1;fill-rule:nonzero;stroke:none"
         id="path333" /></g><g
       id="g335"
       transform="translate(93.6304,151.7764)"><path
         d="m 0,0 c 0,-0.879 -0.71,-1.588 -1.587,-1.588 h -13.136 c -0.874,0 -1.586,0.709 -1.586,1.588 v 13.136 c 0,0.874 0.712,1.587 1.586,1.587 H -1.587 C -0.71,14.723 0,14.01 0,13.136 Z"
         style="fill:#359830;fill-opacity:1;fill-rule:nonzero;stroke:none"
         id="path337" /></g><g
       id="g339"
       transform="translate(93.6304,112.6328)"><path
         d="m 0,0 c 0,-0.875 -0.71,-1.587 -1.587,-1.587 h -13.136 c -0.874,0 -1.586,0.712 -1.586,1.587 v 13.134 c 0,0.88 0.712,1.593 1.586,1.593 H -1.587 C -0.71,14.727 0,14.014 0,13.134 Z"
         style="fill:#359830;fill-opacity:1;fill-rule:nonzero;stroke:none"
         id="path341" /></g><g
       id="g343"
       transform="translate(54.4912,132.2173)"><path
         d="m 0,0 c 0,-0.878 -0.71,-1.587 -1.587,-1.587 h -13.137 c -0.876,0 -1.586,0.709 -1.586,1.587 v 13.135 c 0,0.879 0.71,1.586 1.586,1.586 H -1.587 C -0.71,14.721 0,14.014 0,13.135 Z"
         style="fill:#359830;fill-opacity:1;fill-rule:nonzero;stroke:none"
         id="path345" /></g><g
       id="g347"
       transform="translate(74.0596,132.2173)"><path
         d="m 0,0 c 0,-0.878 -0.708,-1.587 -1.587,-1.587 h -13.134 c -0.876,0 -1.588,0.709 -1.588,1.587 v 13.135 c 0,0.879 0.712,1.586 1.588,1.586 H -1.587 C -0.708,14.721 0,14.014 0,13.135 Z"
         style="fill:#359830;fill-opacity:1;fill-rule:nonzero;stroke:none"
         id="path349" /></g><g
       id="g351"
       transform="translate(54.4912,112.6328)"><path
         d="m 0,0 c 0,-0.875 -0.71,-1.587 -1.587,-1.587 h -13.137 c -0.876,0 -1.586,0.712 -1.586,1.587 v 13.134 c 0,0.88 0.71,1.593 1.586,1.593 H -1.587 C -0.71,14.727 0,14.014 0,13.134 Z"
         style="fill:#359830;fill-opacity:1;fill-rule:nonzero;stroke:none"
         id="path353" /></g><g
       id="g355"
       transform="translate(74.0596,112.6328)"><path
         d="m 0,0 c 0,-0.875 -0.708,-1.587 -1.587,-1.587 h -13.134 c -0.876,0 -1.588,0.712 -1.588,1.587 v 13.134 c 0,0.88 0.712,1.593 1.588,1.593 H -1.587 C -0.708,14.727 0,14.014 0,13.134 Z"
         style="fill:#359830;fill-opacity:1;fill-rule:nonzero;stroke:none"
         id="path357" /></g><g
       id="g359"
       transform="translate(54.4912,93.0435)"><path
         d="m 0,0 c 0,-0.877 -0.71,-1.586 -1.587,-1.586 h -13.137 c -0.876,0 -1.586,0.709 -1.586,1.586 v 13.134 c 0,0.878 0.71,1.589 1.586,1.589 H -1.587 C -0.71,14.723 0,14.012 0,13.134 Z"
         style="fill:#359830;fill-opacity:1;fill-rule:nonzero;stroke:none"
         id="path361" /></g><g
       id="g363"
       transform="translate(74.0596,93.0435)"><path
         d="m 0,0 c 0,-0.877 -0.708,-1.586 -1.587,-1.586 h -13.134 c -0.876,0 -1.588,0.709 -1.588,1.586 v 13.134 c 0,0.878 0.712,1.589 1.588,1.589 H -1.587 C -0.708,14.723 0,14.012 0,13.134 Z"
         style="fill:#359830;fill-opacity:1;fill-rule:nonzero;stroke:none"
         id="path365" /></g><g
       id="g367"
       transform="translate(55.3042,158.3403)"><path
         d="m 0,0 c 0,-4.95 -4.016,-8.967 -8.969,-8.967 -4.955,0 -8.967,4.017 -8.967,8.967 0,4.957 4.012,8.974 8.967,8.974 C -4.016,8.974 0,4.957 0,0"
         style="fill:#c90c0f;fill-opacity:1;fill-rule:nonzero;stroke:none"
         id="path369" /></g><path
       d="m 6.679,79.924 h 3.446 V 63.698 H 6.679 Z"
       style="fill:#000000;fill-opacity:1;fill-rule:nonzero;stroke:none"
       id="path371" /><g
       id="g373"
       transform="translate(28.6357,63.6982)"><path
         d="m 0,0 h -4.381 l -7.072,12.274 h -0.101 c 0.141,-2.167 0.212,-3.714 0.212,-4.639 V 0 h -3.078 v 16.226 h 4.347 L -3.016,4.073 h 0.08 c -0.112,2.109 -0.168,3.599 -0.168,4.472 v 7.681 H 0 Z"
         style="fill:#000000;fill-opacity:1;fill-rule:nonzero;stroke:none"
         id="path375" /></g><g
       id="g377"
       transform="translate(42.3198,68.2046)"><path
         d="m 0,0 c 0,-1.465 -0.527,-2.619 -1.584,-3.462 -1.056,-0.845 -2.526,-1.267 -4.409,-1.267 -1.734,0 -3.269,0.326 -4.602,0.977 v 3.196 c 1.097,-0.487 2.024,-0.833 2.783,-1.033 0.761,-0.199 1.457,-0.298 2.086,-0.298 0.757,0 1.337,0.143 1.742,0.432 0.401,0.289 0.604,0.718 0.604,1.288 0,0.319 -0.089,0.601 -0.266,0.849 -0.178,0.247 -0.439,0.485 -0.785,0.714 -0.343,0.23 -1.047,0.597 -2.107,1.101 -0.991,0.465 -1.737,0.913 -2.233,1.342 -0.498,0.43 -0.895,0.928 -1.191,1.498 -0.297,0.57 -0.444,1.236 -0.444,1.998 0,1.436 0.489,2.563 1.463,3.385 0.974,0.822 2.321,1.232 4.041,1.232 0.843,0 1.651,-0.099 2.417,-0.3 0.768,-0.199 1.57,-0.48 2.407,-0.843 L -1.189,8.135 c -0.868,0.355 -1.584,0.601 -2.152,0.742 -0.567,0.141 -1.124,0.212 -1.672,0.212 -0.654,0 -1.155,-0.152 -1.503,-0.456 -0.347,-0.304 -0.521,-0.698 -0.521,-1.187 0,-0.303 0.07,-0.567 0.211,-0.794 0.14,-0.225 0.365,-0.443 0.673,-0.653 C -5.847,5.787 -5.117,5.408 -3.97,4.861 -2.45,4.135 -1.409,3.408 -0.844,2.68 -0.282,1.951 0,1.056 0,0"
         style="fill:#000000;fill-opacity:1;fill-rule:nonzero;stroke:none"
         id="path379" /></g><g
       id="g381"
       transform="translate(51.5361,63.6982)"><path
         d="M 0,0 H -3.447 V 13.361 H -7.86 v 2.865 H 4.414 V 13.361 H 0 Z"
         style="fill:#000000;fill-opacity:1;fill-rule:nonzero;stroke:none"
         id="path383" /></g><path
       d="m 58.452,79.924 h 3.446 V 63.698 h -3.446 z"
       style="fill:#000000;fill-opacity:1;fill-rule:nonzero;stroke:none"
       id="path385" /><g
       id="g387"
       transform="translate(72.2598,63.6982)"><path
         d="m 0,0 h -3.447 v 13.361 h -4.414 v 2.865 H 4.414 V 13.361 H 0 Z"
         style="fill:#000000;fill-opacity:1;fill-rule:nonzero;stroke:none"
         id="path389" /></g><g
       id="g391"
       transform="translate(92.4033,79.9238)"><path
         d="m 0,0 v -10.5 c 0,-1.197 -0.27,-2.248 -0.807,-3.15 -0.536,-0.903 -1.313,-1.597 -2.329,-2.077 -1.013,-0.48 -2.216,-0.721 -3.602,-0.721 -2.09,0 -3.712,0.536 -4.87,1.604 -1.154,1.069 -1.734,2.533 -1.734,4.388 V 0 h 3.436 v -9.932 c 0,-1.251 0.252,-2.169 0.756,-2.754 0.504,-0.584 1.339,-0.875 2.501,-0.875 1.127,0 1.944,0.293 2.452,0.88 0.508,0.59 0.762,1.513 0.762,2.771 V 0 Z"
         style="fill:#000000;fill-opacity:1;fill-rule:nonzero;stroke:none"
         id="path393" /></g><g
       id="g395"
       transform="translate(102.6533,63.6982)"><path
         d="m 0,0 h -3.446 v 13.361 h -4.413 v 2.865 H 4.413 V 13.361 H 0 Z"
         style="fill:#000000;fill-opacity:1;fill-rule:nonzero;stroke:none"
         id="path397" /></g><g
       id="g399"
       transform="translate(112.4575,71.8335)"><path
         d="M 0,0 C 0,-1.812 0.345,-3.179 1.036,-4.096 1.725,-5.013 2.752,-5.471 4.125,-5.471 6.875,-5.471 8.25,-3.647 8.25,0 8.25,3.654 6.883,5.483 4.147,5.483 2.776,5.483 1.742,5.021 1.045,4.101 0.35,3.178 0,1.812 0,0 m 11.864,0 c 0,-2.686 -0.669,-4.75 -2.001,-6.193 -1.335,-1.443 -3.246,-2.165 -5.738,-2.165 -2.49,0 -4.402,0.722 -5.736,2.165 -1.335,1.443 -2.001,3.515 -2.001,6.214 0,2.701 0.669,4.764 2.007,6.188 1.338,1.425 3.255,2.136 5.752,2.136 2.499,0 4.407,-0.717 5.73,-2.152 C 11.202,4.758 11.864,2.692 11.864,0"
         style="fill:#000000;fill-opacity:1;fill-rule:nonzero;stroke:none"
         id="path401" /></g><g
       id="g403"
       transform="translate(21.0757,44.751)"><path
         d="m 0,0 h -3.392 v 16.226 h 9.318 v -2.82 H 0 V 9.222 H 5.515 V 6.415 H 0 Z"
         style="fill:#000000;fill-opacity:1;fill-rule:nonzero;stroke:none"
         id="path405" /></g><g
       id="g407"
       transform="translate(39.5415,44.751)"><path
         d="M 0,0 H -9.359 V 16.226 H 0 v -2.82 H -5.913 V 9.843 h 5.501 V 7.024 H -5.913 V 2.841 H 0 Z"
         style="fill:#000000;fill-opacity:1;fill-rule:nonzero;stroke:none"
         id="path409" /></g><g
       id="g411"
       transform="translate(52.8369,52.9297)"><path
         d="M 0,0 C 0,3.485 -1.54,5.227 -4.624,5.227 H -6.459 V -5.338 H -4.98 C -1.661,-5.338 0,-3.558 0,0 m 3.582,0.089 c 0,-2.671 -0.762,-4.717 -2.288,-6.137 -1.522,-1.42 -3.72,-2.131 -6.597,-2.131 H -9.906 V 8.047 H -4.8 c 2.652,0 4.711,-0.7 6.178,-2.098 C 2.847,4.55 3.582,2.598 3.582,0.089"
         style="fill:#000000;fill-opacity:1;fill-rule:nonzero;stroke:none"
         id="path413" /></g><g
       id="g415"
       transform="translate(69.145,44.751)"><path
         d="M 0,0 H -9.359 V 16.226 H 0 v -2.82 H -5.912 V 9.843 h 5.501 V 7.024 H -5.912 V 2.841 H 0 Z"
         style="fill:#000000;fill-opacity:1;fill-rule:nonzero;stroke:none"
         id="path417" /></g><g
       id="g419"
       transform="translate(75.9839,53.7734)"><path
         d="m 0,0 h 1.111 c 1.091,0 1.895,0.181 2.413,0.543 0.518,0.363 0.777,0.933 0.777,1.709 0,0.77 -0.265,1.317 -0.795,1.643 C 2.976,4.221 2.157,4.383 1.044,4.383 H 0 Z M 0,-2.796 V -9.022 H -3.446 V 7.204 H 1.289 C 3.496,7.204 5.132,6.801 6.193,5.999 7.251,5.195 7.782,3.976 7.782,2.341 7.782,1.388 7.518,0.538 6.992,-0.205 6.467,-0.949 5.722,-1.532 4.757,-1.954 7.204,-5.601 8.798,-7.958 9.538,-9.022 H 5.715 l -3.882,6.226 z"
         style="fill:#000000;fill-opacity:1;fill-rule:nonzero;stroke:none"
         id="path421" /></g><g
       id="g423"
       transform="translate(95.5161,51.4985)"><path
         d="M 0,0 C -1.088,3.499 -1.703,5.479 -1.838,5.937 -1.976,6.396 -2.074,6.758 -2.135,7.024 -2.378,6.078 -3.079,3.735 -4.235,0 Z m 2,-6.748 -1.176,3.862 h -5.926 l -1.179,-3.862 h -3.713 l 5.735,16.293 h 4.215 L 5.717,-6.748 Z"
         style="fill:#000000;fill-opacity:1;fill-rule:nonzero;stroke:none"
         id="path425" /></g><g
       id="g427"
       transform="translate(103.2783,44.751)"><path
         d="M 0,0 V 16.226 H 3.446 V 2.841 h 6.591 V 0 Z"
         style="fill:#000000;fill-opacity:1;fill-rule:nonzero;stroke:none"
         id="path429" /></g><g
       id="g431"
       transform="translate(23.4224,32.0908)"><path
         d="m 0,0 h 1.954 c 1.006,0 1.744,0.2 2.215,0.598 0.469,0.4 0.703,0.999 0.703,1.797 0,0.81 -0.239,1.394 -0.715,1.751 C 3.678,4.503 2.91,4.682 1.853,4.682 H 0 Z M 0,-1.223 V -6.314 H -1.425 V 5.93 H 1.937 C 3.442,5.93 4.552,5.641 5.272,5.067 5.991,4.492 6.35,3.626 6.35,2.471 6.35,0.853 5.525,-0.241 3.883,-0.812 l 3.33,-5.502 H 5.525 l -2.967,5.091 z"
         style="fill:#000000;fill-opacity:1;fill-rule:nonzero;stroke:none"
         id="path433" /></g><path
       d="m 33.798,25.776 h -1.393 v 9.179 h 1.393 z m -1.509,11.666 c 0,0.319 0.076,0.551 0.233,0.701 0.156,0.147 0.353,0.22 0.588,0.22 0.224,0 0.417,-0.075 0.58,-0.226 0.16,-0.151 0.241,-0.382 0.241,-0.695 0,-0.312 -0.081,-0.545 -0.241,-0.699 -0.163,-0.153 -0.356,-0.228 -0.58,-0.228 -0.235,0 -0.432,0.075 -0.588,0.228 -0.157,0.154 -0.233,0.387 -0.233,0.699"
       style="fill:#000000;fill-opacity:1;fill-rule:nonzero;stroke:none"
       id="path435" /><g
       id="g437"
       transform="translate(37.6816,30.373)"><path
         d="m 0,0 c 0,-1.171 0.234,-2.065 0.706,-2.68 0.469,-0.614 1.159,-0.919 2.071,-0.919 0.911,0 1.604,0.305 2.076,0.918 0.473,0.611 0.71,1.505 0.71,2.681 0,1.169 -0.237,2.055 -0.71,2.66 C 4.381,3.267 3.683,3.568 2.76,3.568 1.848,3.568 1.162,3.271 0.698,2.674 0.232,2.075 0,1.185 0,0 m 7.006,0 c 0,-1.495 -0.377,-2.663 -1.132,-3.504 -0.758,-0.84 -1.798,-1.26 -3.131,-1.26 -0.822,0 -1.551,0.192 -2.188,0.577 -0.639,0.386 -1.129,0.939 -1.478,1.661 -0.346,0.718 -0.52,1.562 -0.52,2.526 0,1.497 0.375,2.663 1.125,3.498 0.75,0.835 1.788,1.251 3.12,1.251 1.285,0 2.309,-0.427 3.067,-1.28 C 6.626,2.615 7.006,1.458 7.006,0"
         style="fill:#000000;fill-opacity:1;fill-rule:nonzero;stroke:none"
         id="path439" /></g><g
       id="g441"
       transform="translate(57.1958,32.1904)"><path
         d="M 0,0 H 4.167 V -5.952 C 3.519,-6.159 2.858,-6.315 2.189,-6.423 1.517,-6.526 0.74,-6.581 -0.144,-6.581 c -1.856,0 -3.303,0.552 -4.335,1.654 -1.038,1.103 -1.553,2.65 -1.553,4.634 0,1.274 0.254,2.388 0.767,3.347 0.511,0.958 1.248,1.689 2.211,2.194 0.962,0.506 2.088,0.758 3.38,0.758 1.31,0 2.528,-0.24 3.658,-0.721 L 3.428,4.029 c -1.106,0.468 -2.17,0.703 -3.193,0.703 -1.496,0 -2.66,-0.443 -3.5,-1.331 -0.838,-0.887 -1.257,-2.119 -1.257,-3.694 0,-1.652 0.402,-2.904 1.21,-3.76 0.81,-0.852 1.998,-1.281 3.563,-1.281 0.85,0 1.681,0.099 2.49,0.295 v 3.768 H 0 Z"
         style="fill:#000000;fill-opacity:1;fill-rule:nonzero;stroke:none"
         id="path443" /></g><g
       id="g445"
       transform="translate(68.2935,35.1221)"><path
         d="M 0,0 C 0.406,0 0.773,-0.032 1.097,-0.101 L 0.905,-1.39 c -0.382,0.085 -0.716,0.126 -1.007,0.126 -0.742,0 -1.378,-0.3 -1.907,-0.905 -0.531,-0.601 -0.794,-1.353 -0.794,-2.252 v -4.925 h -1.392 v 9.179 h 1.15 l 0.157,-1.699 h 0.067 c 0.342,0.597 0.753,1.057 1.233,1.38 C -1.106,-0.162 -0.576,0 0,0"
         style="fill:#000000;fill-opacity:1;fill-rule:nonzero;stroke:none"
         id="path447" /></g><g
       id="g449"
       transform="translate(73.6187,26.7568)"><path
         d="M 0,0 C 0.868,0 1.55,0.237 2.042,0.712 2.54,1.187 2.786,1.851 2.786,2.705 V 3.534 L 1.394,3.477 C 0.287,3.437 -0.513,3.264 -1.001,2.961 -1.489,2.657 -1.737,2.185 -1.737,1.542 c 0,-0.504 0.154,-0.886 0.46,-1.147 C -0.974,0.13 -0.548,0 0,0 M 3.146,-0.98 2.869,0.326 H 2.803 C 2.344,-0.249 1.888,-0.639 1.431,-0.842 0.975,-1.045 0.407,-1.147 -0.276,-1.147 c -0.911,0 -1.626,0.234 -2.145,0.704 -0.515,0.468 -0.773,1.136 -0.773,2.001 0,1.854 1.485,2.824 4.452,2.915 L 2.82,4.521 V 5.093 C 2.82,5.812 2.665,6.345 2.353,6.688 2.042,7.029 1.546,7.202 0.866,7.202 0.099,7.202 -0.767,6.967 -1.737,6.499 L -2.163,7.562 C -1.709,7.807 -1.213,8 -0.673,8.141 -0.135,8.279 0.407,8.35 0.95,8.35 2.045,8.35 2.857,8.107 3.384,7.621 3.915,7.134 4.179,6.356 4.179,5.285 V -0.98 Z"
         style="fill:#000000;fill-opacity:1;fill-rule:nonzero;stroke:none"
         id="path451" /></g><g
       id="g453"
       transform="translate(86.958,25.7764)"><path
         d="M 0,0 V 5.939 C 0,6.687 -0.17,7.244 -0.513,7.612 -0.854,7.98 -1.386,8.165 -2.115,8.165 -3.077,8.165 -3.783,7.907 -4.228,7.387 -4.675,6.867 -4.899,6.011 -4.899,4.817 V 0 h -1.392 v 9.179 h 1.133 l 0.224,-1.256 h 0.07 c 0.283,0.452 0.682,0.803 1.198,1.051 0.513,0.249 1.089,0.372 1.72,0.372 1.107,0 1.942,-0.268 2.499,-0.798 C 1.113,8.014 1.392,7.16 1.392,5.988 V 0 Z"
         style="fill:#000000;fill-opacity:1;fill-rule:nonzero;stroke:none"
         id="path455" /></g><g
       id="g457"
       transform="translate(94.6851,26.7744)"><path
         d="m 0,0 c 0.949,0 1.638,0.258 2.067,0.773 0.428,0.516 0.641,1.351 0.641,2.499 v 0.293 c 0,1.302 -0.216,2.23 -0.651,2.787 -0.431,0.555 -1.125,0.833 -2.074,0.833 -0.817,0 -1.444,-0.318 -1.875,-0.951 -0.435,-0.635 -0.651,-1.528 -0.651,-2.683 0,-1.174 0.216,-2.058 0.646,-2.656 C -1.466,0.299 -0.834,0 0,0 M 2.783,0.233 H 2.708 c -0.644,-0.93 -1.605,-1.398 -2.886,-1.398 -1.201,0 -2.136,0.411 -2.805,1.231 -0.669,0.822 -1.003,1.988 -1.003,3.499 0,1.514 0.334,2.69 1.006,3.527 0.67,0.838 1.605,1.256 2.802,1.256 1.248,0 2.203,-0.452 2.869,-1.357 H 2.799 L 2.741,7.653 2.708,8.299 v 3.735 H 4.1 V -0.998 H 2.968 Z"
         style="fill:#000000;fill-opacity:1;fill-rule:nonzero;stroke:none"
         id="path459" /></g><g
       id="g461"
       transform="translate(105.2451,33.959)"><path
         d="M 0,0 C -0.74,0 -1.326,-0.24 -1.766,-0.722 -2.204,-1.2 -2.463,-1.864 -2.543,-2.714 h 4.809 c 0,0.877 -0.198,1.549 -0.588,2.014 C 1.287,-0.233 0.727,0 0,0 m 0.379,-8.35 c -1.359,0 -2.433,0.413 -3.218,1.24 -0.786,0.827 -1.179,1.974 -1.179,3.442 0,1.479 0.365,2.655 1.096,3.526 0.727,0.871 1.709,1.305 2.938,1.305 1.151,0 2.065,-0.377 2.735,-1.136 0.671,-0.755 1.007,-1.753 1.007,-2.992 v -0.88 h -6.333 c 0.028,-1.077 0.301,-1.894 0.816,-2.452 0.52,-0.559 1.246,-0.839 2.187,-0.839 0.989,0 1.968,0.207 2.935,0.619 V -7.754 C 2.873,-7.967 2.406,-8.119 1.967,-8.212 1.528,-8.303 0.998,-8.35 0.379,-8.35"
         style="fill:#000000;fill-opacity:1;fill-rule:nonzero;stroke:none"
         id="path463" /></g><g
       id="g465"
       transform="translate(34.7085,7.8496)"><path
         d="m 0,0 c 0.95,0 1.641,0.259 2.067,0.774 0.428,0.518 0.642,1.35 0.642,2.501 v 0.291 c 0,1.304 -0.217,2.232 -0.649,2.787 -0.434,0.556 -1.128,0.834 -2.076,0.834 -0.818,0 -1.442,-0.319 -1.876,-0.95 -0.435,-0.633 -0.649,-1.53 -0.649,-2.683 0,-1.176 0.214,-2.058 0.644,-2.657 C -1.465,0.3 -0.834,0 0,0 M 2.786,0.235 H 2.709 c -0.644,-0.933 -1.603,-1.398 -2.887,-1.398 -1.201,0 -2.136,0.41 -2.804,1.229 -0.669,0.823 -1.002,1.989 -1.002,3.5 0,1.516 0.335,2.69 1.007,3.527 0.671,0.838 1.603,1.26 2.799,1.26 1.249,0 2.206,-0.456 2.87,-1.359 h 0.11 L 2.743,7.655 2.709,8.3 v 3.734 H 4.103 V -0.997 H 2.97 Z"
         style="fill:#000000;fill-opacity:1;fill-rule:nonzero;stroke:none"
         id="path467" /></g><g
       id="g469"
       transform="translate(42.6948,11.4512)"><path
         d="m 0,0 c 0,-1.171 0.233,-2.064 0.706,-2.68 0.468,-0.614 1.159,-0.922 2.071,-0.922 0.911,0 1.604,0.306 2.075,0.918 C 5.325,-2.072 5.561,-1.178 5.561,0 5.561,1.167 5.325,2.053 4.852,2.66 4.381,3.265 3.683,3.568 2.761,3.568 1.847,3.568 1.16,3.271 0.695,2.672 0.232,2.076 0,1.185 0,0 m 7.004,0 c 0,-1.497 -0.378,-2.663 -1.133,-3.506 -0.754,-0.838 -1.798,-1.259 -3.128,-1.259 -0.822,0 -1.551,0.195 -2.191,0.578 -0.635,0.385 -1.127,0.939 -1.475,1.659 -0.348,0.72 -0.52,1.562 -0.52,2.528 0,1.495 0.375,2.663 1.124,3.496 0.751,0.833 1.79,1.255 3.121,1.255 C 4.087,4.751 5.109,4.32 5.87,3.467 6.626,2.612 7.004,1.458 7.004,0"
         style="fill:#000000;fill-opacity:1;fill-rule:nonzero;stroke:none"
         id="path471" /></g><g
       id="g473"
       transform="translate(66.394,6.8525)"><path
         d="M 0,0 H -1.63 L -8.332,10.275 H -8.398 C -8.308,9.071 -8.264,7.967 -8.264,6.96 V 0 H -9.581 V 12.245 H -7.97 L -1.285,2.011 h 0.067 C -1.23,2.161 -1.255,2.646 -1.293,3.464 -1.331,4.28 -1.346,4.868 -1.335,5.219 v 7.026 H 0 Z"
         style="fill:#000000;fill-opacity:1;fill-rule:nonzero;stroke:none"
         id="path475" /></g><g
       id="g477"
       transform="translate(70.4858,11.4512)"><path
         d="m 0,0 c 0,-1.171 0.234,-2.064 0.706,-2.68 0.468,-0.614 1.159,-0.922 2.071,-0.922 0.911,0 1.604,0.306 2.076,0.918 0.473,0.612 0.71,1.506 0.71,2.684 0,1.167 -0.237,2.053 -0.71,2.66 C 4.381,3.265 3.683,3.568 2.76,3.568 1.847,3.568 1.162,3.271 0.698,2.672 0.231,2.076 0,1.185 0,0 m 7.006,0 c 0,-1.497 -0.377,-2.663 -1.132,-3.506 -0.758,-0.838 -1.798,-1.259 -3.131,-1.259 -0.821,0 -1.551,0.195 -2.189,0.578 -0.639,0.385 -1.129,0.939 -1.477,1.659 -0.346,0.72 -0.521,1.562 -0.521,2.528 0,1.495 0.376,2.663 1.126,3.496 C 0.431,4.329 1.47,4.751 2.803,4.751 4.088,4.751 5.111,4.32 5.869,3.467 6.626,2.612 7.006,1.458 7.006,0"
         style="fill:#000000;fill-opacity:1;fill-rule:nonzero;stroke:none"
         id="path479" /></g><g
       id="g481"
       transform="translate(84.1265,16.2021)"><path
         d="M 0,0 C 0.409,0 0.774,-0.035 1.099,-0.103 L 0.904,-1.394 c -0.379,0.084 -0.715,0.127 -1.006,0.127 -0.742,0 -1.379,-0.302 -1.906,-0.905 -0.529,-0.601 -0.793,-1.352 -0.793,-2.252 V -9.35 h -1.393 v 9.181 h 1.149 l 0.16,-1.699 h 0.067 c 0.341,0.596 0.753,1.056 1.234,1.38 C -1.104,-0.164 -0.576,0 0,0"
         style="fill:#000000;fill-opacity:1;fill-rule:nonzero;stroke:none"
         id="path483" /></g><g
       id="g485"
       transform="translate(89.916,7.835)"><path
         d="m 0,0 c 0.244,0 0.484,0.018 0.713,0.055 0.229,0.035 0.41,0.073 0.545,0.11 V -0.898 C 1.105,-0.971 0.883,-1.029 0.59,-1.078 c -0.293,-0.046 -0.558,-0.07 -0.792,-0.07 -1.779,0 -2.668,0.936 -2.668,2.805 v 5.461 h -1.317 v 0.668 l 1.317,0.581 0.588,1.957 h 0.804 V 8.198 H 1.189 V 7.118 H -1.478 V 1.716 c 0,-0.555 0.131,-0.978 0.395,-1.274 C -0.822,0.146 -0.46,0 0,0"
         style="fill:#000000;fill-opacity:1;fill-rule:nonzero;stroke:none"
         id="path487" /></g><g
       id="g489"
       transform="translate(96.5176,15.0371)"><path
         d="m 0,0 c -0.74,0 -1.328,-0.242 -1.766,-0.722 -0.439,-0.48 -0.697,-1.144 -0.777,-1.994 h 4.808 c 0,0.878 -0.198,1.547 -0.588,2.015 C 1.286,-0.235 0.726,0 0,0 m 0.377,-8.351 c -1.358,0 -2.432,0.414 -3.216,1.241 -0.787,0.826 -1.18,1.972 -1.18,3.441 0,1.48 0.366,2.654 1.096,3.524 0.727,0.873 1.71,1.31 2.938,1.31 1.152,0 2.065,-0.381 2.736,-1.136 0.671,-0.757 1.007,-1.755 1.007,-2.995 v -0.879 h -6.333 c 0.027,-1.077 0.301,-1.896 0.816,-2.454 0.518,-0.557 1.245,-0.837 2.186,-0.837 0.989,0 1.969,0.206 2.936,0.619 V -7.758 C 2.872,-7.969 2.405,-8.119 1.966,-8.214 1.527,-8.305 0.997,-8.351 0.377,-8.351"
         style="fill:#000000;fill-opacity:1;fill-rule:nonzero;stroke:none"
         id="path491" /></g></g></g></svg>
